HIERARCHY
ROOT Hips
{
  OFFSET 0 0 0
  CHANNELS 6 Xposition Yposition Zposition Zrotation Xrotation Yrotation
  JOINT Spine
  {
    OFFSET 0 10 0
    CHANNELS 3 Zrotation Xrotation Yrotation
    JOINT Neck
    {
      OFFSET 0 30 0
      CHANNELS 3 Zrotation Xrotation Yrotation
      JOINT Head
      {
        OFFSET 0 8 0
        CHANNELS 3 Zrotation Xrotation Yrotation
        End Site
        {
          OFFSET 0 10 0
        }
      }
    }
    JOINT LeftArm
    {
      OFFSET 15 30 0
      CHANNELS 3 Zrotation Xrotation Yrotation
      JOINT LeftForeArm
      {
        OFFSET 25 0 0
        CHANNELS 3 Zrotation Xrotation Yrotation
        JOINT LeftHand
        {
          OFFSET 25 0 0
          CHANNELS 3 Zrotation Xrotation Yrotation
          End Site
          {
            OFFSET 10 0 0
          }
        }
      }
    }
    JOINT RightArm
    {
      OFFSET -15 30 0
      CHANNELS 3 Zrotation Xrotation Yrotation
      JOINT RightForeArm
      {
        OFFSET -25 0 0
        CHANNELS 3 Zrotation Xrotation Yrotation
        JOINT RightHand
        {
          OFFSET -25 0 0
          CHANNELS 3 Zrotation Xrotation Yrotation
          End Site
          {
            OFFSET -10 0 0
          }
        }
      }
    }
  }
  JOINT LeftUpLeg
  {
    OFFSET 10 -10 0
    CHANNELS 3 Zrotation Xrotation Yrotation
    JOINT LeftLeg
    {
      OFFSET 0 -35 0
      CHANNELS 3 Zrotation Xrotation Yrotation
      JOINT LeftFoot
      {
        OFFSET 0 -40 0
        CHANNELS 3 Zrotation Xrotation Yrotation
        End Site
        {
          OFFSET 0 0 15
        }
      }
    }
  }
  JOINT RightUpLeg
  {
    OFFSET -10 -10 0
    CHANNELS 3 Zrotation Xrotation Yrotation
    JOINT RightLeg
    {
      OFFSET 0 -35 0
      CHANNELS 3 Zrotation Xrotation Yrotation
      JOINT RightFoot
      {
        OFFSET 0 -40 0
        CHANNELS 3 Zrotation Xrotation Yrotation
        End Site
        {
          OFFSET 0 0 15
        }
      }
    }
  }
}
MOTION
Frames:	27
Frame Time:	0.00833333
48.6166 73.0308 104.602 29.4089 -57.5362 -156.011 -5.69145 3.01834 5.79564 1.85001 -29.34 9.56586 -4.51697 -36.9518 6.9316 -33.7116 29.6387 -66.8927 23.9244 -18.9566 -49.3706 20.6217 -73.1106 27.5723 41.093 10.6135 59.3926 -24.673 -20.4117 51.8155 -1.74342 -34.6788 -5.58013 92.8232 -73.7154 57.0459 0.160207 30.4706 -0.588423 -0.874729 2.24143 23.2426 -26.0672 -88.6198 -22.8287 -0.188962 33.1066 0.651246 0.000981226 0.103949 -11.3825 
48.5801 73.2493 104.468 28.9497 -56.6943 -156.295 -5.72954 3.16317 5.74805 1.84347 -29.3606 9.49639 -4.48114 -36.9889 6.85826 -33.1603 30.3182 -66.713 24.066 -19.2209 -49.8189 21.0687 -73.355 28.0391 41.3046 11.1369 58.5107 -24.861 -20.8009 52.4659 -1.75965 -34.8148 -5.60858 89.0122 -73.6102 53.3136 0.156026 30.1166 -0.580141 -0.880411 2.27662 22.9985 -13.6959 -87.537 -10.3633 -0.188823 33.0012 0.648856 -0.0169373 0.0210189 -11.6626 
48.5411 73.4837 104.323 28.4751 -55.7967 -156.596 -5.75563 3.37082 5.71289 1.84615 -29.3953 9.42895 -4.43614 -37.0039 6.79305 -32.6051 30.9795 -66.5483 24.2059 -19.4866 -50.2669 21.4373 -73.5501 28.4236 41.5054 11.6594 57.6472 -25.0498 -21.2031 53.1257 -1.77338 -34.9289 -5.63254 85.0009 -73.4068 49.377 0.151716 29.7458 -0.571515 -0.882209 2.30369 22.7515 -8.55187 -86.31 -5.13296 -0.187648 32.8446 0.645141 -0.0354167 -0.061132 -11.9456 
48.4997 73.7448 104.162 27.9744 -54.8129 -156.919 -5.76927 3.68199 5.6924 1.85021 -29.464 9.35707 -4.37568 -36.9892 6.73288 -32.0328 31.6193 -66.405 24.3458 -19.7576 -50.7202 21.6873 -73.6793 28.6842 41.6877 12.1737 56.8064 -25.2382 -21.6168 53.7997 -1.78452 -35.021 -5.65176 80.7098 -73.0761 45.1555 0.147034 29.3355 -0.562029 -0.882077 2.32785 22.4932 -5.63273 -84.9203 -2.12931 -0.185341 32.6252 0.639841 -0.0551437 -0.145308 -12.2454 
48.4551 74.0312 103.986 27.4528 -53.7481 -157.253 -5.77258 4.09109 5.68358 1.84791 -29.5686 9.27616 -4.29547 -36.9457 6.67428 -31.4402 32.2394 -66.285 24.4857 -20.0338 -51.1803 21.8375 -73.7559 28.8406 41.8476 12.6787 55.9803 -25.4248 -22.04 54.4944 -1.79373 -35.097 -5.66746 76.2479 -72.6026 40.7559 0.141997 28.8819 -0.551633 -0.881442 2.35252 22.2229 -3.79533 -83.3848 -0.200598 -0.182347 32.3517 0.633246 -0.0764314 -0.23164 -12.5671 
48.4074 74.3271 103.803 26.9326 -52.6472 -157.584 -5.76641 4.53706 5.6833 1.85086 -29.6797 9.19586 -4.20473 -36.8849 6.62202 -30.8462 32.8439 -66.1779 24.6226 -20.3092 -51.6391 21.936 -73.8059 28.9432 41.9956 13.1834 55.1616 -25.6095 -22.4722 55.2047 -1.80103 -35.1573 -5.67992 71.9051 -72.0023 36.4644 0.137014 28.4188 -0.54113 -0.877594 2.36981 21.9529 -2.60608 -81.7768 1.07979 -0.178883 32.0416 0.625797 -0.098277 -0.315898 -12.8898 
48.3562 74.6165 103.621 26.4328 -51.5558 -157.901 -5.75156 4.95886 5.68823 1.87091 -29.7676 9.12591 -4.11276 -36.8182 6.58079 -30.2702 33.4367 -66.0726 24.7539 -20.5782 -52.0881 22.0332 -73.8549 29.0444 42.1432 13.6979 54.3435 -25.7919 -22.9135 55.9256 -1.80646 -35.2021 -5.68946 67.9089 -71.3123 32.5075 0.13244 27.9803 -0.531285 -0.867981 2.37177 21.6957 -1.82202 -80.1691 1.94686 -0.175149 31.7126 0.617925 -0.119461 -0.393902 -13.1924 
48.3013 74.8832 103.45 25.9696 -50.5191 -158.199 -5.72873 5.29545 5.69488 1.92015 -29.8026 9.07614 -4.02897 -36.7567 6.55523 -29.7318 34.0221 -65.9581 24.8774 -20.8356 -52.5189 22.1812 -73.9288 29.1985 42.3024 14.2326 53.5193 -25.9723 -23.3643 56.6521 -1.81006 -35.2316 -5.69638 64.415 -70.5863 29.0424 0.128577 27.6001 -0.522828 -0.850178 2.35041 21.4636 -1.30274 -78.6338 2.53197 -0.171327 31.3822 0.610044 -0.138568 -0.461521 -13.454 
48.2438 75.125 103.29 25.5458 -49.5431 -158.48 -5.69787 5.53577 5.70349 2.02003 -29.7778 9.0567 -3.96692 -36.6997 6.54743 -29.2315 34.5966 -65.8353 24.9913 -21.077 -52.9226 22.3843 -74.0287 29.4098 42.4777 14.7902 52.6867 -26.1487 -23.8222 57.3871 -1.81097 -35.239 -5.69971 61.4007 -69.848 26.0493 0.125388 27.2837 -0.515829 -0.824096 2.3049 21.2561 -0.924813 -77.1794 2.95042 -0.167349 31.0477 0.602082 -0.154533 -0.515997 -13.6671 
48.1838 75.3525 103.135 25.1478 -48.5974 -158.752 -5.6586 5.7205 5.71628 2.16263 -29.7131 9.06112 -3.92044 -36.6395 6.55425 -28.7564 35.1572 -65.7103 25.0978 -21.3069 -53.3047 22.6088 -74.1374 29.6433 42.6621 15.3638 51.85 -26.3199 -24.2856 58.1355 -1.80915 -35.224 -5.69924 58.7177 -69.0854 23.381 0.122608 27.0084 -0.509758 -0.791669 2.24046 21.065 -0.614187 -75.7587 3.2819 -0.163117 30.6973 0.593779 -0.167936 -0.560167 -13.8456 
48.1199 75.5692 102.985 24.7667 -47.6732 -159.018 -5.61099 5.86622 5.7326 2.31602 -29.6187 9.07426 -3.86932 -36.5776 6.57247 -28.3066 35.7083 -65.5797 25.201 -21.5337 -53.6776 22.8514 -74.2529 29.8953 42.8506 15.9505 51.0127 -26.487 -24.7566 58.896 -1.80586 -35.1971 -5.6964 56.2908 -68.3032 20.9624 0.120177 26.7662 -0.504436 -0.753528 2.15817 20.8911 -0.360951 -74.3607 3.54711 -0.158747 30.3352 0.585249 -0.179807 -0.598307 -14.0008 
48.0504 75.7788 102.837 24.3938 -46.7616 -159.278 -5.55512 5.98952 5.75183 2.44832 -29.5052 9.08105 -3.79334 -36.5154 6.59886 -27.8826 36.2545 -65.44 25.3045 -21.765 -54.0542 23.1081 -74.373 30.162 43.0379 16.5467 50.1784 -26.6508 -25.2372 59.6675 -1.80237 -35.1685 -5.69261 54.0548 -67.5023 18.7279 0.118045 26.5491 -0.499687 -0.710251 2.05914 20.7354 -0.163437 -72.974 3.75857 -0.154347 29.9655 0.576602 -0.191277 -0.634665 -14.1437 
47.9738 75.9847 102.689 24.0208 -45.8536 -159.534 -5.49108 6.10698 5.77337 2.5278 -29.383 9.06644 -3.67226 -36.4543 6.63023 -27.4847 36.8005 -65.2878 25.4113 -22.0079 -54.4478 23.3751 -74.4956 30.4391 43.2184 17.1492 49.3506 -26.8122 -25.7299 60.4492 -1.79993 -35.1485 -5.68931 51.9546 -66.6801 16.6215 0.116169 26.3491 -0.495345 -0.662368 1.94448 20.5987 -0.0245666 -71.5874 3.92421 -0.150018 29.5923 0.567944 -0.20355 -0.673472 -14.2856 
47.8863 76.1909 102.54 23.6365 -44.9271 -159.798 -5.41438 6.25004 5.80169 2.53739 -29.2685 9.0252 -3.49067 -36.3922 6.66678 -27.1086 37.3376 -65.1305 25.5202 -22.2601 -54.8583 23.638 -74.614 30.7118 43.3861 17.755 48.535 -26.9701 -26.2356 61.2487 -1.79938 -35.1439 -5.68742 49.9298 -65.82 14.5754 0.114586 26.1697 -0.491488 -0.606993 1.80565 20.489 0.0600969 -70.1642 4.04093 -0.145557 29.1983 0.558874 -0.216439 -0.714501 -14.4167 
47.7888 76.3949 102.39 23.2471 -43.9878 -160.07 -5.32505 6.40765 5.83721 2.4984 -29.1547 8.96744 -3.26212 -36.3281 6.71062 -26.7544 37.8625 -64.9692 25.6287 -22.5163 -55.2773 23.8995 -74.7297 30.983 43.545 18.3662 47.7291 -27.122 -26.7512 62.0694 -1.79987 -35.1479 -5.68599 48.0033 -64.9271 12.6127 0.113304 26.0163 -0.488216 -0.54378 1.64192 20.4059 0.110259 -68.7121 4.12096 -0.140924 28.7807 0.549337 -0.229084 -0.754948 -14.5296 
47.6873 76.591 102.243 22.8685 -43.0687 -160.331 -5.2298 6.53263 5.87319 2.43683 -29.017 8.90123 -3.00977 -36.2653 6.7614 -26.4297 38.3877 -64.7912 25.7375 -22.7786 -55.7057 24.1825 -74.8525 31.2762 43.7043 18.9866 46.9237 -27.2673 -27.2735 62.9044 -1.80016 -35.1502 -5.68362 46.2357 -64.0333 10.8043 0.112245 25.8836 -0.485395 -0.47703 1.46617 20.3374 0.139006 -67.2861 4.18823 -0.136432 28.3655 0.53994 -0.24177 -0.79515 -14.6388 
47.5876 76.7732 102.103 22.5145 -42.2033 -160.568 -5.13516 6.57782 5.90284 2.37872 -28.8307 8.83471 -2.75678 -36.2068 6.8188 -26.1426 38.9261 -64.5836 25.8474 -23.0489 -56.1447 24.5111 -74.9923 31.6166 43.874 19.6198 46.1096 -27.4055 -27.8002 63.7467 -1.799 -35.1406 -5.67891 44.6685 -63.1739 9.20378 0.111337 25.7662 -0.482895 -0.41109 1.29124 20.2717 0.1543 -65.9415 4.26145 -0.132359 27.9787 0.531265 -0.25483 -0.835431 -14.759 
47.4956 76.9356 101.973 22.1969 -41.4251 -160.765 -5.04758 6.49609 5.91936 2.35014 -28.5712 8.77612 -2.52627 -36.156 6.88251 -25.9017 39.4902 -64.3328 25.9589 -23.3292 -56.5952 24.9118 -75.1588 32.0313 44.0645 20.2699 45.2772 -27.537 -28.3299 64.5889 -1.79515 -35.1091 -5.67048 43.3293 -62.387 7.8524 0.110509 25.6589 -0.480586 -0.350389 1.12993 20.197 0.160714 -64.7334 4.35583 -0.128945 27.6462 0.523868 -0.268639 -0.876104 -14.9046 
47.4134 77.0729 101.857 21.9178 -40.7556 -160.924 -4.97117 6.25563 5.92143 2.35334 -28.2213 8.72436 -2.31201 -36.1226 6.95009 -25.7133 40.0905 -64.0276 26.0726 -23.6218 -57.0634 25.4341 -75.3693 32.5714 44.2811 20.9453 44.4159 -27.6615 -28.8678 65.4393 -1.78741 -35.0455 -5.65637 42.2124 -61.7022 6.75258 0.110101 25.5691 -0.478604 -0.295073 0.982445 20.1149 0.157397 -63.6935 4.47639 -0.12624 27.3788 0.51795 -0.283434 -0.917641 -15.0799 
47.3371 77.1891 101.752 21.6654 -40.1728 -161.059 -4.90164 5.88788 5.91375 2.37126 -27.7974 8.67436 -2.09853 -36.1044 7.02177 -25.5741 40.7182 -63.6744 26.1871 -23.9243 -57.5495 26.0716 -75.6164 33.23 44.5189 21.6435 43.5312 -27.7775 -29.4146 66.306 -1.77664 -34.9565 -5.63754 41.2527 -61.1027 5.83367 0.110151 25.5003 -0.477031 -0.242178 0.840255 20.0333 0.140905 -62.7851 4.61194 -0.124024 27.1592 0.5131 -0.299038 -0.95981 -15.2751 
47.2635 77.2921 101.653 21.4302 -39.6453 -161.175 -4.83293 5.44052 5.89856 2.40081 -27.3253 8.6283 -1.89514 -36.0868 7.10123 -25.4789 41.3569 -63.2862 26.3005 -24.2318 -58.0455 26.7635 -75.873 33.9438 44.7728 22.3515 42.6379 -27.8839 -29.9636 67.1813 -1.76472 -34.8573 -5.61697 40.3914 -60.5565 5.03068 0.110146 25.4415 -0.47566 -0.191542 0.70306 19.9496 0.111122 -61.9604 4.7526 -0.122127 26.9713 0.508954 -0.31522 -1.00186 -15.484 
47.1897 77.3899 101.557 21.2036 -39.1417 -161.277 -4.75899 4.96126 5.87801 2.43871 -26.831 8.58817 -1.71126 -36.055 7.19207 -25.4218 41.9902 -62.8764 26.4113 -24.5399 -58.5431 27.4394 -76.1126 34.6403 45.0363 23.0559 41.7511 -27.9804 -30.5089 68.0561 -1.75348 -34.7632 -5.59759 39.5808 -60.0297 4.28832 0.109573 25.3814 -0.474285 -0.143028 0.570546 19.8612 0.0683146 -61.1714 4.88904 -0.120396 26.7988 0.505161 -0.331719 -1.04304 -15.7004 
47.1125 77.4906 101.459 20.9775 -38.6304 -161.37 -4.67362 4.4978 5.85409 2.4815 -26.3404 8.55573 -1.55643 -35.9942 7.29784 -25.3955 42.6019 -62.4593 26.5183 -24.8449 -59.034 28.0186 -76.3099 35.2367 45.3015 23.7429 40.8861 -28.0677 -31.0456 68.9207 -1.7447 -34.6892 -5.58231 38.7813 -59.4872 3.55861 0.10792 25.3091 -0.472702 -0.0965254 0.442394 19.7657 0.0128539 -60.3706 5.01226 -0.118689 26.6258 0.501375 -0.348245 -1.08261 -15.9181 
47.0322 77.5935 101.359 20.7494 -38.1139 -161.455 -4.57833 4.04642 5.82551 2.52684 -25.843 8.53068 -1.42949 -35.9167 7.42089 -25.4048 43.1929 -62.03 26.6221 -25.1484 -59.5195 28.4756 -76.4607 35.7069 45.5655 24.412 40.0417 -28.1467 -31.5794 69.7782 -1.74044 -34.6529 -5.57477 37.9948 -58.9303 2.84672 0.104124 25.2246 -0.470942 -0.0518517 0.317934 19.6619 -0.0563486 -59.5642 5.12313 -0.117067 26.4586 0.497737 -0.364728 -1.12037 -16.1367 
46.9507 77.6933 101.26 20.524 -37.6134 -161.531 -4.4775 3.57527 5.79104 2.57679 -25.3217 8.51183 -1.32428 -35.8324 7.55874 -25.4554 43.7734 -61.5773 26.7234 -25.453 -60.0058 28.8548 -76.5827 36.0968 45.8325 25.0715 39.2073 -28.2169 -32.1152 70.6373 -1.73947 -34.6443 -5.57299 37.242 -58.3835 2.17946 0.0985251 25.1354 -0.46914 -0.00912274 0.197369 19.5514 -0.138107 -58.7842 5.22887 -0.115617 26.308 0.494472 -0.381356 -1.15679 -16.3603 
46.8679 77.791 101.162 20.3042 -37.1252 -161.595 -4.36913 3.08994 5.75259 2.63437 -24.7921 8.49947 -1.24318 -35.7226 7.70751 -25.5408 44.3409 -61.1065 26.8216 -25.757 -60.4908 29.1756 -76.6839 36.4265 46.1046 25.7204 38.384 -28.2772 -32.6485 71.4953 -1.73863 -34.6369 -5.57148 36.5178 -57.8455 1.54671 0.0927252 25.0412 -0.467255 0.0313296 0.0816895 19.4359 -0.228719 -58.0209 5.33015 -0.114239 26.1642 0.491364 -0.398212 -1.1922 -16.5896 
46.7833 77.8874 101.065 20.0928 -36.6461 -161.645 -4.25111 2.59598 5.71203 2.70259 -24.2698 8.49375 -1.18879 -35.5692 7.86322 -25.6542 44.893 -60.6236 26.9163 -26.0587 -60.9725 29.4596 -76.772 36.7184 46.3835 26.3576 37.5728 -28.3273 -33.1749 72.3487 -1.73478 -34.6046 -5.56473 35.8179 -57.3146 0.939168 0.0883257 24.9419 -0.465245 0.0691972 -0.0281066 19.3171 -0.324693 -57.2649 5.42747 -0.11284 26.0178 0.4882 -0.415382 -1.22693 -16.8252 
